<svg id="Layer_1" data-name="Layer 1" xmlns="http://www.w3.org/2000/svg" viewBox="0 0 1000 1000"><defs><style>.cls-1{fill:#4a5ca9;}.cls-2{fill:#fff;}</style></defs><title>Claim process</title><path class="cls-1" d="M844.1,463.18H812.45V338.77a21.69,21.69,0,0,0-22.08-22.08h-53V206.27a21.69,21.69,0,0,0-22.08-22.08H283.19a88.59,88.59,0,0,0-88.33,88.33v5.15h0V703.88c0,41.22,33.86,75.08,75.08,75.08H791.1a21.69,21.69,0,0,0,22.08-22.08V628.06H844.1A21.69,21.69,0,0,0,866.18,606V485.26A21.69,21.69,0,0,0,844.1,463.18ZM283.19,228.36h410v22.82H283.92a22.08,22.08,0,0,0,0,44.17H693.2v21.35h-410c-25,0-44.17-19.14-44.17-44.17S258.16,228.36,283.19,228.36ZM769,734.8H269.94c-17.67,0-30.92-13.25-30.92-30.92V349.08a89.94,89.94,0,0,0,44.17,11.78h485.1V463.18H677a21.69,21.69,0,0,0-22.08,22.08V606A21.69,21.69,0,0,0,677,628.06h92Zm53-150.9H699.09V507.34H822V583.9Z"/><circle class="cls-2" cx="287.43" cy="678.02" r="161.79"/><path class="cls-1" d="M287.43,540.22c-76,0-137.8,61.82-137.8,137.8s61.81,137.8,137.8,137.8S425.23,754,425.23,678s-61.82-137.8-137.8-137.8Zm0,257.53A119.73,119.73,0,1,1,407.16,678,119.86,119.86,0,0,1,287.43,797.75Zm0,0"/><path class="cls-1" d="M342.19,669H296.46V623.26a9,9,0,0,0-18.07,0V669H232.67a9,9,0,0,0,0,18.07h45.72v45.72a9,9,0,0,0,18.07,0V687.06h45.73a9,9,0,0,0,0-18.07Zm0,0"/></svg>