<svg id="Layer_1" data-name="Layer 1" xmlns="http://www.w3.org/2000/svg" viewBox="0 0 1000 1000"><defs><style>.cls-1{fill:#4a5ca9;}</style></defs><title>Claim process</title><rect class="cls-1" x="362.31" y="352.25" width="415.13" height="34.24" rx="1.18" ry="1.18"/><path class="cls-1" d="M855.26,356.08l-66.52-66.52c-6.5-6.5-17.2-7.46-24-1.3A17,17,0,0,0,764,312.9l30.15,30.16a5.4,5.4,0,0,1-3.82,9.22H681.65c-9.2,0-17.44,6.89-17.92,16.07a17,17,0,0,0,17,17.9H790.37a5.4,5.4,0,0,1,3.82,9.22l-29.47,29.48c-6.5,6.5-7.46,17.2-1.31,24a17,17,0,0,0,24.64.67l67.2-67.2A18.64,18.64,0,0,0,855.26,356.08Z"/><path class="cls-1" d="M206.06,449.42a80.05,80.05,0,1,1,80.06-80.05A80.14,80.14,0,0,1,206.06,449.42Zm0-145.57a65.51,65.51,0,1,0,65.52,65.51A65.58,65.58,0,0,0,206.06,303.85Z"/><rect class="cls-1" x="216.56" y="643.07" width="415.13" height="34.24" rx="1.18" ry="1.18" transform="translate(848.25 1320.38) rotate(-180)"/><path class="cls-1" d="M138.74,673.48,205.26,740c6.5,6.5,17.2,7.46,24,1.3a17,17,0,0,0,.66-24.64L199.8,686.5a5.4,5.4,0,0,1,3.82-9.22H312.35c9.2,0,17.44-6.89,17.92-16.07a17,17,0,0,0-17-17.9H203.62a5.4,5.4,0,0,1-3.82-9.22l29.47-29.48c6.5-6.5,7.46-17.2,1.31-24a17,17,0,0,0-24.64-.67l-67.2,67.2A18.64,18.64,0,0,0,138.74,673.48Z"/><path class="cls-1" d="M787.94,740.24a80.05,80.05,0,1,1,80-80.05A80.15,80.15,0,0,1,787.94,740.24Zm0-145.57a65.51,65.51,0,1,0,65.51,65.51A65.59,65.59,0,0,0,787.94,594.68Z"/><path class="cls-1" d="M206.06,418.15a48.79,48.79,0,1,1,48.79-48.79A48.85,48.85,0,0,1,206.06,418.15Zm0-93.21a44.43,44.43,0,1,0,44.42,44.43A44.47,44.47,0,0,0,206.06,324.94Z"/><path class="cls-1" d="M787.94,709a48.79,48.79,0,1,1,48.79-48.79A48.85,48.85,0,0,1,787.94,709Zm0-93.21a44.43,44.43,0,1,0,44.42,44.43A44.47,44.47,0,0,0,787.94,615.76Z"/></svg>